<?xml version="1.0" encoding="UTF-8"?>
<svg id="Ebene_2" data-name="Ebene 2" xmlns="http://www.w3.org/2000/svg" viewBox="0 0 125.45 125.45">
  <defs>
    <style>
      .cls-1 {
        fill: #fff;
      }
    </style>
  </defs>
  <g id="Ebene_1-2" data-name="Ebene 1">
    <path class="cls-1" d="M83.94,62.72l37.12-37.12c5.86-5.86,5.86-15.35,0-21.21-5.86-5.86-15.36-5.86-21.21,0l-37.12,37.12L25.61,4.39C19.75-1.46,10.25-1.46,4.39,4.39c-5.86,5.86-5.86,15.35,0,21.21l37.12,37.12L4.39,99.84c-5.86,5.86-5.86,15.35,0,21.21,2.93,2.93,6.77,4.39,10.61,4.39s7.68-1.46,10.61-4.39l37.12-37.12,37.12,37.12c2.93,2.93,6.77,4.39,10.61,4.39s7.68-1.46,10.61-4.39c5.86-5.86,5.86-15.35,0-21.21l-37.12-37.12Z"/>
  </g>
</svg>